<svg id="Grupo_419" data-name="Grupo 419" xmlns="http://www.w3.org/2000/svg" width="17.109" height="12" viewBox="0 0 17.109 12">
  <path id="Caminho_4" data-name="Caminho 4" d="M5,25.5a.253.253,0,0,1-.253-.253V22.695A.253.253,0,0,1,5,22.442H7.557a.253.253,0,0,1,0,.505h-2.3v2.3A.253.253,0,0,1,5,25.5Z" transform="translate(-4.75 -22.442)" fill="#1c1c1c"/>
  <path id="Caminho_5" data-name="Caminho 5" d="M104.865,25.5a.253.253,0,0,1-.253-.253v-2.3h-2.3a.253.253,0,1,1,0-.505h2.554a.253.253,0,0,1,.253.253v2.554A.253.253,0,0,1,104.865,25.5Z" transform="translate(-88.009 -22.442)" fill="#1c1c1c"/>
  <path id="Caminho_6" data-name="Caminho 6" d="M7.557,87.425H5a.253.253,0,0,1-.253-.253V84.618a.253.253,0,1,1,.505,0v2.3h2.3a.253.253,0,0,1,0,.505Z" transform="translate(-4.75 -75.425)" fill="#1c1c1c"/>
  <path id="Caminho_7" data-name="Caminho 7" d="M104.865,87.425h-2.554a.253.253,0,1,1,0-.505h2.3v-2.3a.253.253,0,1,1,.505,0v2.554A.253.253,0,0,1,104.865,87.425Z" transform="translate(-88.009 -75.425)" fill="#1c1c1c"/>
  <g id="Grupo_4" data-name="Grupo 4" transform="translate(1.408 1.795)">
    <path id="Caminho_8" data-name="Caminho 8" d="M14.5,34.875h.866v8.41H14.5Z" transform="translate(-14.5 -34.875)" fill="#1c1c1c"/>
    <path id="Caminho_9" data-name="Caminho 9" d="M41.5,34.875h.866v7.4H41.5Z" transform="translate(-37.602 -34.875)" fill="#1c1c1c"/>
    <path id="Caminho_10" data-name="Caminho 10" d="M53.5,34.875h.866v7.4H53.5Z" transform="translate(-47.869 -34.875)" fill="#1c1c1c"/>
    <path id="Caminho_11" data-name="Caminho 11" d="M65.5,34.875h.866v7.4H65.5Z" transform="translate(-58.137 -34.875)" fill="#1c1c1c"/>
    <path id="Caminho_12" data-name="Caminho 12" d="M107.5,34.875h.866v8.41H107.5Z" transform="translate(-94.073 -34.875)" fill="#1c1c1c"/>
    <path id="Caminho_13" data-name="Caminho 13" d="M26.5,34.875h1.3v7.4H26.5Z" transform="translate(-24.767 -34.875)" fill="#1c1c1c"/>
    <path id="Caminho_14" data-name="Caminho 14" d="M77.5,34.875h1.3v7.4H77.5Z" transform="translate(-68.404 -34.875)" fill="#1c1c1c"/>
    <path id="Caminho_15" data-name="Caminho 15" d="M92.5,34.875h1.3v7.4H92.5Z" transform="translate(-81.239 -34.875)" fill="#1c1c1c"/>
  </g>
</svg>
